<svg width="55" height="55" viewBox="0 0 55 55" fill="none" xmlns="http://www.w3.org/2000/svg">
<rect x="1.5" y="1.5" width="52" height="52" rx="26" stroke="#61DAFB" stroke-width="3"/>
<path d="M17.6 38.5V37.54C17.8987 37.54 18.3253 37.508 18.88 37.444C19.4347 37.38 19.9467 37.2413 20.416 37.028V17.284C19.9467 17.1347 19.4453 17.06 18.912 17.06C18.4 17.06 17.9947 17.0707 17.696 17.092L17.6 16.132C19.008 15.9613 20.416 15.8013 21.824 15.652C23.2533 15.5027 24.5653 15.428 25.76 15.428C27.1893 15.428 28.48 15.5987 29.632 15.94C30.784 16.26 31.7013 16.8253 32.384 17.636C33.0667 18.4467 33.408 19.556 33.408 20.964C33.408 21.668 33.248 22.404 32.928 23.172C32.6293 23.9187 32.1173 24.644 31.392 25.348C30.688 26.052 29.728 26.66 28.512 27.172C28.896 27.8547 29.3547 28.6227 29.888 29.476C30.4213 30.3293 30.9867 31.1827 31.584 32.036C32.1813 32.8893 32.7573 33.6787 33.312 34.404C33.8453 35.0653 34.3467 35.6413 34.816 36.132C35.3067 36.6227 35.8613 37.0493 36.48 37.412C37.12 37.7747 37.8987 38.1373 38.816 38.5L38.528 39.428C37.056 39.3213 35.8613 39.14 34.944 38.884C34.048 38.628 33.2907 38.276 32.672 37.828C32.0747 37.3587 31.488 36.804 30.912 36.164C30.5707 35.78 30.176 35.236 29.728 34.532C29.28 33.828 28.8213 33.0707 28.352 32.26C27.8827 31.428 27.424 30.628 26.976 29.86C26.5493 29.092 26.1867 28.452 25.888 27.94C25.4827 28.0253 25.056 28.1107 24.608 28.196C24.16 28.26 23.6907 28.3133 23.2 28.356V37.028C23.6907 37.2413 24.224 37.38 24.8 37.444C25.376 37.508 25.824 37.54 26.144 37.54V38.5H17.6ZM23.2 27.204C24.8427 27.14 26.208 26.8307 27.296 26.276C28.4053 25.7213 29.2373 25.0387 29.792 24.228C30.3467 23.4173 30.624 22.5853 30.624 21.732C30.624 20.4733 30.304 19.4813 29.664 18.756C29.024 18.0093 28.1387 17.508 27.008 17.252C25.8987 16.9747 24.6293 16.932 23.2 17.124V27.204Z" fill="#1A2C3E"/>
</svg>
